<svg xmlns="http://www.w3.org/2000/svg" width="711" height="674" fill="none" viewBox="0 0 711 674"><rect width="509.6" height="109.2" x="110" y="400.699" fill="#0553B1" rx="18.2"/><rect width="473.2" height="364" x="232.566" y=".298" fill="#08589C" rx="18.2" transform="rotate(10 232.566 0.297852)"/><rect width="473.2" height="364" fill="#44D1FD" rx="18.2" transform="matrix(-0.984808 0.173648 0.173648 0.984808 478.834 73.0981)"/><path fill="#027DFD" d="M73.6001 205.178C73.6001 192.542 83.4397 182.298 95.5775 182.298H634.023C646.161 182.298 656 192.542 656 205.178V559.818C656 572.454 646.161 582.698 634.023 582.698H95.5774C83.4397 582.698 73.6001 572.454 73.6001 559.818V205.178Z"/><path fill="#fff" d="M383 277.848H523.4C526.272 277.848 528.6 280.758 528.6 284.348V316.848C528.6 320.438 526.272 323.348 523.4 323.348H383V277.848Z"/><path fill="#fff" d="M383 359.748H595.333C598.684 359.748 601.4 362.658 601.4 366.248V398.748C601.4 402.338 598.684 405.248 595.333 405.248H383V359.748Z"/><path fill="#fff" d="M383 441.648H559.312C562.454 441.648 565 444.558 565 448.148V480.648C565 484.238 562.454 487.148 559.312 487.148H383V441.648Z"/><path fill="#fff" d="M244.144 283.985L309.937 283.918L199.554 386.364L170.787 412.928L138.055 382.497L244.144 283.985ZM243.532 375.457C244.386 374.41 245.957 374.926 247.149 374.792L309.881 374.807L252.708 427.844L219.807 397.48L243.532 375.457Z"/><path fill="#fff" d="M187.012 427.897L219.808 397.481L252.709 427.845L252.846 427.98L219.816 458.366L187.012 427.897Z"/><path fill="#fff" d="M219.813 458.366L252.842 427.98L309.903 481.018C288.41 481.062 266.924 481.003 245.439 481.047C244.215 481.302 243.457 480.262 242.676 479.619L219.813 458.366Z"/></svg>